<svg width="500" height="500" viewBox="0 0 500 500" fill="none" xmlns="http://www.w3.org/2000/svg">
<g clip-path="url(#clip0_746_331)">
<mask id="mask0_746_331" style="mask-type:luminance" maskUnits="userSpaceOnUse" x="0" y="0" width="501" height="500">
<path d="M250 499.998C388.072 499.998 500.001 388.07 500.001 249.999C500.001 111.928 388.072 0 250 0C111.929 0 0 111.928 0 249.999C0 388.07 111.929 499.998 250 499.998Z" fill="white"/>
</mask>
<g mask="url(#mask0_746_331)">
<path d="M500.001 0H0V499.998H500.001V0Z" fill="#190933"/>
<path d="M147 239.939C147.001 162.101 210.101 99.0006 287.939 99H356.669C369.486 99 379.875 109.39 379.875 122.206C379.875 135.022 369.486 145.411 356.669 145.411H287.939C235.733 145.412 193.412 187.733 193.411 239.939H290.454C303.493 239.939 314.062 250.509 314.062 263.548C314.062 276.586 303.493 287.156 290.454 287.156H193.416L193.411 612.419C193.411 625.235 183.022 635.625 170.206 635.625C157.389 635.625 147 625.235 147 612.419V239.939Z" fill="#BB97F8"/>
</g>
</g>
<defs>
<clipPath id="clip0_746_331">
<rect width="500" height="500" fill="white"/>
</clipPath>
</defs>
</svg>
